<?xml version="1.0" encoding="UTF-8" standalone="no"?>
<!-- Created with Inkscape (http://www.inkscape.org/) -->

<svg
   width="258.46945mm"
   height="69.696022mm"
   viewBox="0 0 258.46945 69.696022"
   version="1.1"
   id="svg5"
   xmlns="http://www.w3.org/2000/svg"
   xmlns:svg="http://www.w3.org/2000/svg">
  <defs
     id="defs2" />
  <g
     id="layer1"
     transform="translate(220.75467,345.77678)">
    <path
       d="m -62.832221,-286.91317 v 0.76348 h 99.54699 v -0.76348 z m -156.922399,0 v 0.76348 h 99.54617 v -0.76348 z m 149.001854,3.76442 c -0.0374,0.1592 -0.08892,0.34648 -0.154545,0.56186 -0.06554,0.21538 -0.163855,0.44948 -0.294944,0.70231 -0.131138,0.24347 -0.299677,0.49631 -0.50564,0.75851 -0.206029,0.25283 -0.463581,0.50567 -0.772629,0.7585 -0.196596,0.16856 -0.360465,0.31838 -0.491603,0.44948 -0.131085,0.12174 -0.24343,0.23411 -0.337061,0.33711 -0.08429,0.10301 -0.16389,0.20134 -0.238799,0.29497 -0.07492,0.0843 -0.159205,0.17793 -0.252868,0.28094 -0.08428,0.0936 -0.191946,0.19664 -0.323031,0.30901 -0.121723,0.11237 -0.280928,0.23879 -0.477608,0.37925 -0.224709,0.16855 -0.477545,0.32775 -0.758515,0.47758 -0.271572,0.14983 -0.557181,0.28092 -0.856837,0.39329 -0.299649,0.11237 -0.603959,0.20133 -0.912964,0.26688 -0.299646,0.0655 -0.589929,0.0983 -0.870843,0.0983 -0.37459,0 -0.711704,-0.0796 -1.011361,-0.23879 -0.224709,-0.0468 -0.468178,-0.16387 -0.730405,-0.35116 -0.262191,-0.18728 -0.505664,-0.43076 -0.730402,-0.73041 -0.224761,-0.29966 -0.407373,-0.65549 -0.547825,-1.06752 -0.149828,-0.41202 -0.224751,-0.87087 -0.224751,-1.37654 0,-0.65549 0.163869,-1.38122 0.491607,-2.17718 0.318392,-0.79596 0.880254,-1.64342 1.685586,-2.54239 0.646109,-0.70231 1.301602,-1.31099 1.966507,-1.82602 0.664848,-0.51503 1.31566,-0.93642 1.95242,-1.26416 0.646158,-0.32776 1.259526,-0.57122 1.840089,-0.73042 0.580563,-0.15919 1.104939,-0.23879 1.57317,-0.23879 0.103,0 0.196642,0.005 0.280927,0.0141 0.09363,0.009 0.182581,0.0234 0.266866,0.0421 0.03739,-0.0187 0.09826,-0.0281 0.182612,-0.0281 0.224758,0 0.435448,0.0375 0.632079,0.11238 0.196649,0.0655 0.365189,0.16387 0.505619,0.29497 0.149832,0.1311 0.266887,0.28561 0.351176,0.46353 0.09365,0.17792 0.140473,0.37457 0.140473,0.58994 0,0.46821 -0.12173,0.91301 -0.365214,1.3344 -0.243459,0.42139 -0.561819,0.81469 -0.955096,1.17989 -0.393312,0.35584 -0.838119,0.67891 -1.334428,0.9692 -0.496277,0.29029 -1.001942,0.53845 -1.516983,0.74446 -0.515052,0.20601 -1.016042,0.3652 -1.502974,0.47757 -0.477598,0.11237 -0.894306,0.16856 -1.250128,0.16856 -0.271572,0 -0.566526,-0.0375 -0.884898,-0.11237 -0.318389,-0.0749 -0.571228,-0.16388 -0.758511,-0.26688 -0.496309,0.72104 -0.870877,1.3578 -1.123706,1.91029 -0.243449,0.54313 -0.365178,1.03943 -0.365178,1.48892 0,0.27156 0.03744,0.50098 0.112331,0.68827 0.224759,0.11237 0.53848,0.16855 0.941134,0.16855 0.383935,0 0.828742,-0.0702 1.334417,-0.2107 0.505675,-0.14982 1.058171,-0.37924 1.657477,-0.68826 0.608641,-0.31838 1.254757,-0.72573 1.938341,-1.22203 0.683627,-0.50567 1.390622,-1.11435 2.121016,-1.82603 0.131075,-0.1311 0.238768,-0.22942 0.323053,-0.29497 0.09362,-0.0655 0.16854,-0.0983 0.224737,-0.0983 0.0562,0 0.0843,0.0562 0.0843,0.16857 l -0.05619,0.40731 z m -1.98052,-3.04805 c 0.393281,-0.2341 0.716323,-0.45885 0.969137,-0.67422 0.262206,-0.21538 0.468211,-0.41203 0.618042,-0.58994 0.159195,-0.18729 0.271579,-0.35585 0.337143,-0.50567 0.06554,-0.15919 0.103022,-0.29966 0.112388,-0.4214 -0.08431,-0.11237 -0.229478,-0.16856 -0.435472,-0.16856 -0.206026,0 -0.463526,0.0515 -0.77252,0.15451 -0.29966,0.0936 -0.627405,0.22943 -0.983262,0.40735 -0.355847,0.16855 -0.730437,0.36989 -1.123749,0.60399 -0.383932,0.23411 -0.763161,0.49162 -1.137698,0.77255 -0.365192,0.27156 -0.716344,0.56186 -1.053458,0.87088 -0.337132,0.30902 -0.627436,0.61803 -0.870885,0.92705 -0.112409,0.12174 -0.21071,0.24815 -0.294933,0.37926 0.07489,0.0187 0.145101,0.0281 0.210633,0.0281 0.07494,0 0.149864,0 0.224752,0 0.477555,0 1.058149,-0.14983 1.741762,-0.44949 0.683585,-0.30902 1.502968,-0.75382 2.45812,-1.3344 v 2e-5 z m -5.000533,-2.68285 c 0,0.18729 -0.04214,0.3418 -0.126393,0.46353 -0.08427,0.12173 -0.271582,0.19665 -0.561883,0.22474 l -3.736315,0.26688 c -0.318393,0.48694 -0.678911,1.03475 -1.081557,1.64342 -0.402622,0.59931 -0.814666,1.21735 -1.236119,1.85412 -0.411992,0.63677 -0.823994,1.26885 -1.236014,1.89625 -0.402646,0.62741 -0.777236,1.20798 -1.123749,1.74174 -0.337079,0.5244 -0.632047,0.97857 -0.884904,1.3625 -0.243483,0.38393 -0.416694,0.6555 -0.519673,0.81469 -0.177938,0.27156 -0.309055,0.44948 -0.393344,0.53376 -0.08429,0.0843 -0.140462,0.13578 -0.16855,0.15451 -0.03739,0.0187 -0.0655,0.0328 -0.0843,0.0421 -0.0188,0.009 -0.05157,0.0749 -0.09832,0.19665 -0.08428,0.16856 -0.187293,0.25284 -0.309033,0.25284 -0.10298,0 -0.1966,-0.0562 -0.280885,-0.16855 -0.09365,-0.10301 -0.16389,-0.25752 -0.210722,-0.46354 -0.0562,-0.20601 -0.112363,-0.35584 -0.168507,-0.44948 -0.0656,-0.0936 -0.0984,-0.21069 -0.0984,-0.35116 0,-0.0562 0.0094,-0.12642 0.02819,-0.21069 0.009,-0.0936 0.03246,-0.19665 0.07045,-0.30902 0.0374,-0.21538 0.159142,-0.52439 0.365224,-0.92706 0.205994,-0.40266 0.458844,-0.85214 0.758525,-1.34844 0.299657,-0.49631 0.632086,-1.02539 0.997278,-1.58724 0.365192,-0.56186 0.735055,-1.11434 1.109592,-1.65747 0.374597,-0.54312 0.730434,-1.05347 1.067548,-1.53105 0.346481,-0.48693 0.646137,-0.90833 0.898966,-1.26417 l -0.800654,0.0843 c -0.468185,0.0562 -0.824011,0.0843 -1.06747,0.0843 -0.224762,0 -0.398018,-0.014 -0.519758,-0.0421 -0.12174,-0.0375 -0.220045,-0.0749 -0.294933,-0.11237 -0.07494,-0.0468 -0.131127,-0.0937 -0.168561,-0.14047 -0.0374,-0.0562 -0.08422,-0.10768 -0.140486,-0.1545 -0.07491,-0.0468 -0.140462,-0.0936 -0.19667,-0.14046 -0.0562,-0.0562 -0.0843,-0.10769 -0.0843,-0.15452 0,-0.0468 0.03746,-0.0796 0.112409,-0.0983 0.08429,-0.0281 0.229454,-0.0515 0.435479,-0.0702 0.05615,-0.009 0.121677,-0.0375 0.196621,-0.0843 0.08429,-0.0562 0.229443,-0.12173 0.435469,-0.19664 0.215374,-0.0749 0.524365,-0.14983 0.926991,-0.22474 0.402699,-0.0843 0.955184,-0.15451 1.657455,-0.21069 0.103064,0 0.206083,-0.005 0.309048,-0.0141 0.112395,-0.009 0.220077,-0.0234 0.323053,-0.0421 0.252846,-0.32775 0.594645,-0.75851 1.025376,-1.29226 0.430746,-0.53377 0.912996,-1.1003 1.446791,-1.69961 0.533764,-0.60867 1.100311,-1.21735 1.699606,-1.82602 0.608651,-0.61804 1.217334,-1.17053 1.826073,-1.65747 0.608641,-0.49631 1.203244,-0.89897 1.783807,-1.20799 0.580616,-0.30902 1.114379,-0.46352 1.601279,-0.46352 0.4214,0 0.777268,0.0843 1.067569,0.25283 0.29966,0.15919 0.51036,0.38393 0.6321,0.67422 0.112364,0.10301 0.191947,0.22006 0.238746,0.35116 0.047,0.1311 0.0705,0.27156 0.0705,0.42139 0,0.24347 -0.05621,0.51503 -0.168607,0.81469 -0.103028,0.29029 -0.24348,0.58994 -0.421354,0.89897 -0.17792,0.30901 -0.379254,0.61803 -0.604012,0.92705 -0.215374,0.29965 -0.440101,0.58058 -0.674215,0.84278 -0.234107,0.2622 -0.46355,0.50099 -0.68829,0.71636 -0.215361,0.20601 -0.407328,0.36989 -0.575899,0.49162 -0.121709,0.0843 -0.234097,0.14515 -0.337147,0.18261 -0.09363,0.0281 -0.182559,0.0421 -0.266781,0.0421 -0.187346,0 -0.346565,-0.0655 -0.47765,-0.19664 -0.121709,-0.14047 -0.210658,-0.27625 -0.266855,-0.40735 -0.047,-0.11237 -0.103192,-0.22943 -0.168593,-0.35116 -0.06551,-0.12174 -0.09827,-0.26219 -0.09827,-0.42139 0,-0.17792 0.06552,-0.36989 0.196575,-0.5759 0.187339,-0.25283 0.351229,-0.43075 0.491648,-0.53375 0.140483,-0.11237 0.27159,-0.18729 0.393312,-0.22475 0.131075,-0.0375 0.25751,-0.0562 0.379303,-0.0562 0.121709,-0.009 0.257489,-0.0375 0.407307,-0.0843 0.131089,-0.0374 0.294975,-0.13578 0.491659,-0.29496 0.196628,-0.16856 0.383893,-0.36053 0.561799,-0.5759 0.187283,-0.22475 0.346481,-0.45886 0.477597,-0.70232 0.131075,-0.24348 0.196618,-0.46353 0.196618,-0.66018 0,-0.19665 -0.05619,-0.35116 -0.168551,-0.46353 -0.346448,0 -0.730369,0.11237 -1.151759,0.33712 -0.4214,0.22473 -0.861533,0.52439 -1.320408,0.89896 -0.449478,0.3652 -0.913003,0.78659 -1.390569,1.26416 -0.477587,0.47758 -0.941127,0.9692 -1.390604,1.47487 -0.44008,0.50567 -0.861466,1.01134 -1.264176,1.517 -0.39328,0.50567 -0.744421,0.96452 -1.053415,1.37655 0.355846,-0.0281 0.688265,-0.0515 0.99726,-0.0702 0.308991,-0.0281 0.580552,-0.0421 0.814666,-0.0421 0.159198,0 0.294986,0.005 0.407353,0.0141 0.12174,0.009 0.224758,0.0234 0.309044,0.0421 0.187254,0.0562 0.337072,0.103 0.449467,0.14046 0.12174,0.0375 0.2107,0.0749 0.266876,0.11237 0.06554,0.0375 0.107682,0.0843 0.126425,0.14047 0.0188,0.0468 0.02822,0.11705 0.02822,0.2107 h -7.05e-4 z m -12.206255,3.86274 c -0.299646,0.44949 -0.627405,0.89897 -0.983252,1.34845 -0.355854,0.44948 -0.702313,0.87087 -1.039396,1.26416 -0.327766,0.3933 -0.627415,0.73978 -0.898952,1.03944 -0.271561,0.29965 -0.477597,0.51971 -0.618084,0.66017 -0.234103,0.24348 -0.486943,0.51035 -0.758515,0.80064 -0.271568,0.2903 -0.533742,0.57122 -0.786535,0.84279 -0.24348,0.27156 -0.468232,0.52439 -0.674226,0.7585 -0.206029,0.22474 -0.365234,0.3933 -0.477629,0.50567 -0.149832,0.15919 -0.25751,0.26219 -0.323056,0.30901 -0.05618,0.0562 -0.112353,0.0843 -0.16855,0.0843 -0.0188,0 -0.0375,-0.005 -0.0561,-0.0141 -0.0188,-0.009 -0.0375,-0.014 -0.0561,-0.014 -0.0562,0 -0.0843,-0.0281 -0.0843,-0.0843 0,-0.0936 0.0187,-0.1592 0.0561,-0.19666 -0.08429,0.0562 -0.154513,0.10301 -0.210679,0.14047 -0.047,0.0375 -0.131279,0.0562 -0.252814,0.0562 -0.131142,0 -0.229475,-0.0702 -0.295018,-0.2107 -0.05618,-0.14046 -0.09362,-0.27156 -0.112335,-0.3933 -0.0188,-0.0375 -0.02819,-0.0843 -0.02819,-0.14046 0,-0.1311 0.04682,-0.28561 0.140441,-0.46353 0.103029,-0.18728 0.299681,-0.47289 0.589961,-0.85683 -0.42139,0.29966 -0.861508,0.59463 -1.320363,0.88492 -0.458823,0.29029 -0.903619,0.55717 -1.334417,0.80064 -0.430727,0.23411 -0.828707,0.42139 -1.193897,0.56186 -0.3652,0.14983 -0.67421,0.22474 -0.92706,0.22474 -0.21537,-0.009 -0.40734,-0.0702 -0.5759,-0.18261 -0.16854,-0.103 -0.31368,-0.2341 -0.43539,-0.39329 -0.12174,-0.16855 -0.21541,-0.35584 -0.28101,-0.56186 -0.0655,-0.20601 -0.0983,-0.42138 -0.0983,-0.64613 0.0188,-0.56185 0.15458,-1.07688 0.40735,-1.54509 0.24346,-0.47758 0.56183,-0.91301 0.95513,-1.30631 0.38394,-0.3933 0.81939,-0.73977 1.30636,-1.03943 0.486937,-0.30902 0.983235,-0.5759 1.48891,-0.80064 0.51502,-0.22474 1.016,-0.40734 1.502943,-0.54781 0.486932,-0.14983 0.922362,-0.26219 1.306308,-0.33711 0.449474,-0.0936 0.847449,-0.15451 1.193927,-0.18259 0.346449,-0.0375 0.64613,-0.0562 0.899008,-0.0562 0.589897,0 0.973811,0.0983 1.151728,0.29498 0.159219,-0.18729 0.313742,-0.36053 0.463571,-0.51972 0.159198,-0.16855 0.304331,-0.33243 0.435416,-0.49162 0.39328,-0.44948 0.669544,-0.85683 0.828773,-1.22203 0.159163,-0.37457 0.238746,-0.69764 0.238746,-0.9692 0,-0.1311 -0.01418,-0.25283 -0.04252,-0.3652 -0.02836,-0.11237 -0.07516,-0.2107 -0.140441,-0.29498 -0.112395,-0.1311 -0.234128,-0.23878 -0.365182,-0.32306 -0.12174,-0.0936 -0.248186,-0.14046 -0.379324,-0.14046 -0.205962,0 -0.538385,0.0374 -0.99726,0.11236 -0.45882,0.0749 -0.987891,0.23411 -1.587197,0.47758 -0.599341,0.24347 -1.236123,0.59463 -1.910369,1.05348 -0.674197,0.44948 -1.334361,1.05347 -1.980523,1.81197 -0.09362,0.0936 -0.159173,0.14046 -0.196628,0.14046 -0.04697,0 -0.09845,-0.0187 -0.154449,-0.0562 -0.047,-0.0468 -0.103202,-0.0937 -0.168603,-0.14047 -0.07494,-0.0281 -0.135802,-0.0562 -0.18257,-0.0843 -0.047,-0.0375 -0.07051,-0.0843 -0.07051,-0.14046 0,-0.0749 0.02812,-0.15451 0.0843,-0.23879 0.07494,-0.14046 0.220098,-0.33711 0.435473,-0.58995 0.21536,-0.26219 0.486921,-0.54311 0.814655,-0.84277 0.32777,-0.29966 0.70702,-0.60399 1.137754,-0.91302 0.430767,-0.30901 0.898977,-0.58994 1.40462,-0.84278 0.505654,-0.25283 1.044092,-0.45884 1.61531,-0.61803 0.571218,-0.15919 1.165853,-0.23879 1.783902,-0.23879 0.355847,0 0.70703,0.0468 1.053542,0.14046 0.346446,0.0843 0.627352,0.22943 0.842723,0.43544 0.299649,0.15919 0.519716,0.3933 0.660199,0.70232 0.140451,0.29965 0.210679,0.6274 0.210679,0.98324 0,0.44012 -0.07959,0.8896 -0.238789,1.34845 -0.159194,0.44948 -0.360528,0.85683 -0.60398,1.22203 l 7.06e-4,2e-5 z m -7.879976,2.61261 c -0.589961,0.2903 -1.105006,0.58996 -1.545149,0.89897 -0.430731,0.29966 -0.791241,0.59463 -1.081521,0.88493 -0.2903,0.28092 -0.51037,0.55249 -0.6602,0.81468 -0.15919,0.25284 -0.25284,0.47758 -0.28093,0.67423 0.0188,0.0281 0.0703,0.0421 0.15455,0.0421 0.17794,0 0.44951,-0.0655 0.8147,-0.19665 0.35583,-0.14046 0.758493,-0.32774 1.208002,-0.56185 0.458823,-0.2341 0.94573,-0.50099 1.460751,-0.80064 0.51502,-0.29966 1.016024,-0.61335 1.50302,-0.9411 0.496277,-0.32775 0.959806,-0.6555 1.390562,-0.98325 0.440108,-0.32775 0.80531,-0.63677 1.095593,-0.92706 -0.561851,0 -1.165831,0.0796 -1.811926,0.23879 -0.646173,0.15919 -1.395317,0.4448 -2.247452,0.85683 z m -11.36347,4.91622 c -0.29964,0.12174 -0.58996,0.20602 -0.87093,0.25284 -0.27155,0.0468 -0.52906,0.0702 -0.77253,0.0702 -0.48693,0 -0.90363,-0.0936 -1.25011,-0.28092 -0.34646,-0.17792 -0.62737,-0.40267 -0.84274,-0.67423 -0.0562,-0.0562 -0.11707,-0.11705 -0.18261,-0.18259 -0.0656,-0.0749 -0.12179,-0.1592 -0.16855,-0.25284 -0.1124,-0.18729 -0.20604,-0.43544 -0.28092,-0.74446 -0.0749,-0.31839 -0.11241,-0.68359 -0.11241,-1.09562 0,-0.44948 0.0655,-0.94578 0.19661,-1.4889 0.13114,-0.54313 0.36526,-1.11434 0.70234,-1.71365 0.33711,-0.60867 0.79597,-1.23608 1.37659,-1.88222 0.58057,-0.64613 1.31565,-1.29694 2.20526,-1.95244 0.47757,-0.35584 0.95515,-0.66017 1.43274,-0.91301 0.47757,-0.25283 0.94108,-0.45884 1.39055,-0.61803 0.45886,-0.16856 0.8896,-0.29029 1.29223,-0.36521 0.40271,-0.0843 0.76792,-0.12642 1.09565,-0.12642 0.4682,0 0.82403,0.0796 1.06749,0.23879 0.0843,0.0749 0.16388,0.14515 0.23882,0.2107 0.0749,0.0655 0.13576,0.12642 0.18261,0.1826 0.17792,0.1311 0.3137,0.30902 0.40735,0.53376 0.0936,0.22474 0.14044,0.42139 0.14044,0.58994 0,0.29029 -0.0655,0.58059 -0.19661,0.87088 -0.13115,0.29029 -0.28568,0.51035 -0.46359,0.66018 -0.16854,0.15919 -0.32772,0.28092 -0.47755,0.3652 -0.14983,0.0843 -0.27625,0.12642 -0.37928,0.12642 -0.0284,-0.0188 -0.0798,-0.0281 -0.15445,-0.0281 -0.0749,-0.009 -0.15454,-0.0234 -0.23879,-0.0421 -0.0749,-0.0187 -0.14517,-0.0515 -0.21068,-0.0983 -0.0655,-0.0468 -0.0983,-0.11705 -0.0983,-0.2107 0,-0.13109 -0.0375,-0.24346 -0.11241,-0.3371 -0.0749,-0.0937 -0.11233,-0.19198 -0.11233,-0.29499 0,-0.13109 0.0749,-0.2575 0.22474,-0.37924 0.14983,-0.13109 0.31837,-0.27156 0.50562,-0.42139 0.19663,-0.15919 0.34646,-0.32306 0.44948,-0.49162 -0.0843,-0.12174 -0.24816,-0.18261 -0.49161,-0.18261 -0.3746,0 -0.89432,0.14515 -1.55915,0.43544 -0.66485,0.28093 -1.41867,0.71168 -2.26146,1.29226 -0.46822,0.32775 -0.9458,0.72573 -1.43273,1.19394 -0.47757,0.45885 -0.913,0.9692 -1.3063,1.53105 -0.38395,0.55249 -0.70232,1.13307 -0.95515,1.74175 -0.24344,0.60867 -0.36517,1.21267 -0.36517,1.81198 0.11234,0.27156 0.29493,0.48225 0.54779,0.63208 0.26222,0.14982 0.57122,0.22474 0.92702,0.22474 0.11237,0 0.22942,-0.009 0.35116,-0.0281 0.13112,-0.0281 0.26222,-0.0562 0.3933,-0.0843 0.43074,-0.11237 0.913,-0.2903 1.44679,-0.53377 0.54311,-0.24346 1.08623,-0.53375 1.62936,-0.87086 0.54316,-0.34648 1.06287,-0.72105 1.55915,-1.12371 0.49631,-0.41203 0.91769,-0.83342 1.26414,-1.26417 0.0843,-0.10301 0.19667,-0.15451 0.33715,-0.15451 0.12174,0 0.22944,0.0375 0.32307,0.11237 0.0936,0.0749 0.14044,0.19197 0.14044,0.35116 0,0.11238 -0.0609,0.28561 -0.18257,0.51971 -0.12174,0.23411 -0.30434,0.51036 -0.5478,0.82874 -0.24349,0.30902 -0.54782,0.64613 -0.91301,1.01133 -0.36522,0.36521 -0.7913,0.73041 -1.27824,1.09561 -0.48694,0.36521 -1.03005,0.71637 -1.62935,1.05349 -0.59931,0.3371 -1.25949,0.63676 -1.98054,0.89896 v 2e-5 z m 129.731704,-41.27964 -5.609798,5.20181 v 7.39474 h -4.895804 v -37.84064 h 4.895804 v 24.27512 l 14.738463,-13.46351 h 5.915787 l -11.372582,11.16859 12.494542,15.86044 H 30.69681 Z m -27.4879215,12.90254 c -2.7538785,0 -5.2187575,-0.59499 -7.3946805,-1.78495 -2.141922,-1.18995 -3.824873,-2.82189 -5.048832,-4.89582 -1.223977,-2.10792 -1.835954,-4.48783 -1.835954,-7.13974 0,-2.6519 0.611977,-5.01482 1.835954,-7.08874 1.223959,-2.10793 2.90691,-3.73987 5.048832,-4.89582 2.175923,-1.18996 4.640802,-1.78494 7.3946805,-1.78494 2.4479143,0 4.6238794,0.49298 6.52783158,1.47894 1.93791062,0.98597 3.43383652,2.41392 4.48779892,4.28385 l -3.72287794,2.39691 c -0.84994748,-1.29195 -1.90390986,-2.26092 -3.16186596,-2.90689 -1.2579562,-0.64598 -2.6519258,-0.96897 -4.1818524,-0.96897 -1.7679564,0 -3.3658777,0.39099 -4.7938267,1.17296 -1.393931,0.78197 -2.498901,1.90393 -3.314894,3.36588 -0.781971,1.42795 -1.172947,3.07689 -1.172947,4.94682 0,1.90393 0.390976,3.58687 1.172947,5.04882 0.815993,1.42795 1.920963,2.53291 3.314894,3.31488 1.427949,0.78197 3.0258703,1.17295 4.7938267,1.17295 1.5299266,0 2.9238962,-0.32298 4.1818524,-0.96896 1.2579561,-0.64597 2.31191848,-1.61494 3.16186596,-2.90689 l 3.72287794,2.34591 c -1.0539624,1.86994 -2.5498883,3.31489 -4.48779892,4.33485 -1.90395218,0.98596 -4.07991728,1.47895 -6.52783158,1.47895 z M -32.948765,-333.2002 h 4.895846 v 27.02903 h -4.895846 z m 2.447935,-5.20181 c -0.951988,0 -1.75097,-0.30599 -2.396924,-0.91797 -0.612002,-0.61198 -0.917991,-1.35995 -0.917991,-2.24392 0,-0.88397 0.305989,-1.63194 0.917991,-2.24392 0.645954,-0.64597 1.444936,-0.96896 2.396924,-0.96896 0.951967,0 1.733917,0.30599 2.345895,0.91796 0.645953,0.57798 0.968953,1.30896 0.968953,2.19293 0,0.91796 -0.323,1.69993 -0.968953,2.34591 -0.611978,0.61198 -1.393928,0.91797 -2.345895,0.91797 z m -8.363613,30.64989 c -0.713955,0.61198 -1.597925,1.08797 -2.651887,1.42795 -1.053952,0.30599 -2.141911,0.45899 -3.263872,0.45899 -2.719892,0 -4.827827,-0.73098 -6.323774,-2.19293 -1.495947,-1.46195 -2.243921,-3.55287 -2.243921,-6.27277 v -24.78511 h 4.895804 v 5.91579 h 7.751735 v 4.02885 h -7.751735 v 14.63648 c 0,1.46195 0.357001,2.5839 1.070984,3.36587 0.747974,0.78198 1.801936,1.17296 3.161888,1.17296 1.495947,0 2.7709,-0.42498 3.824851,-1.27496 z m -32.026813,1.88694 c -2.209945,0 -4.334856,-0.289 -6.374772,-0.86697 -2.039931,-0.61198 -3.637883,-1.37695 -4.793852,-2.29492 l 2.039917,-3.87586 c 1.189969,0.84997 2.634915,1.52994 4.334866,2.03992 1.699951,0.50998 3.416889,0.76498 5.150827,0.76498 4.283837,0 6.425759,-1.22396 6.425759,-3.67187 0,-0.81598 -0.288989,-1.46195 -0.86698,-1.93793 -0.577956,-0.47599 -1.308932,-0.81597 -2.192898,-1.01996 -0.849993,-0.238 -2.073949,-0.49299 -3.67188,-0.76498 -2.175923,-0.33999 -3.960869,-0.73097 -5.354832,-1.17295 -1.359951,-0.44199 -2.532898,-1.18996 -3.518863,-2.24392 -0.985954,-1.05396 -1.478925,-2.53291 -1.478925,-4.43684 0,-2.44792 1.019951,-4.40285 3.059878,-5.86479 2.039916,-1.49595 4.776819,-2.24392 8.210708,-2.24392 1.801925,0 3.603851,0.22099 5.405787,0.66297 1.801932,0.44199 3.280893,1.03696 4.436861,1.78494 l -2.090935,3.87587 c -2.209913,-1.42796 -4.810809,-2.14193 -7.8027,-2.14193 -2.073938,0 -3.65488,0.33998 -4.742832,1.01996 -1.087971,0.67998 -1.631961,1.58094 -1.631961,2.7029 0,0.88397 0.306,1.58095 0.917967,2.09093 0.611977,0.50998 1.359951,0.88397 2.24392,1.12196 0.917956,0.23799 2.192909,0.50998 3.824852,0.81597 2.175923,0.37398 3.926868,0.78197 5.252833,1.22395 1.359941,0.40799 2.515909,1.12196 3.467876,2.14193 0.951946,1.01996 1.427917,2.44791 1.427917,4.28384 0,2.44792 -1.053962,4.40285 -3.161876,5.86479 -2.073914,1.42795 -4.912805,2.14193 -8.516662,2.14193 z m -28.201983,-27.59001 c 2.617907,0 4.963812,0.57797 7.037715,1.73393 2.073938,1.15596 3.688881,2.77091 4.844828,4.84483 1.189958,2.07393 1.784936,4.47084 1.784936,7.19074 0,2.7199 -0.594978,5.13382 -1.784936,7.24174 -1.155947,2.07392 -2.77089,3.68887 -4.844828,4.84483 -2.073903,1.15595 -4.419808,1.73394 -7.037715,1.73394 -1.937931,0 -3.722881,-0.37399 -5.354831,-1.12196 -1.59793,-0.74797 -2.95787,-1.83593 -4.07983,-3.26389 v 13.9735 h -4.89585 v -36.92267 h 4.69183 v 4.28385 c 1.08799,-1.49595 2.46494,-2.61791 4.13088,-3.36588 1.66593,-0.78198 3.50187,-1.17296 5.507801,-1.17296 z m -0.408009,23.30615 c 1.733928,0 3.280872,-0.39098 4.640813,-1.17295 1.393962,-0.81597 2.481933,-1.93793 3.263896,-3.36588 0.815972,-1.46195 1.223956,-3.12789 1.223956,-4.99782 0,-1.86993 -0.407984,-3.51887 -1.223956,-4.94682 -0.781963,-1.46195 -1.869934,-2.58391 -3.263896,-3.36588 -1.359941,-0.78197 -2.906885,-1.17296 -4.640813,-1.17296 -1.699952,0 -3.246892,0.40799 -4.640822,1.22396 -1.35995,0.78197 -2.4479,1.88693 -3.26387,3.31488 -0.78199,1.42795 -1.17299,3.07689 -1.17299,4.94682 0,1.86993 0.391,3.53587 1.17299,4.99782 0.78196,1.42795 1.86991,2.54991 3.26387,3.36588 1.39393,0.78197 2.94087,1.17295 4.640822,1.17295 z m -34.729612,4.28386 c -2.68591,0 -5.09982,-0.59499 -7.24173,-1.78495 -2.14193,-1.18995 -3.82488,-2.82189 -5.04883,-4.89582 -1.18995,-2.10792 -1.78493,-4.48783 -1.78493,-7.13974 0,-2.6519 0.59498,-5.01482 1.78493,-7.08874 1.22395,-2.10793 2.9069,-3.73987 5.04883,-4.89582 2.14191,-1.18996 4.55582,-1.78494 7.24173,-1.78494 2.6859,0 5.08281,0.59498 7.19074,1.78494 2.14193,1.15595 3.80788,2.78789 4.99784,4.89582 1.22395,2.07392 1.83592,4.43684 1.83592,7.08874 0,2.65191 -0.61197,5.03182 -1.83592,7.13974 -1.18996,2.07393 -2.85591,3.70587 -4.99784,4.89582 -2.10793,1.18996 -4.50484,1.78495 -7.19074,1.78495 z m 0,-4.28386 c 1.73393,0 3.28087,-0.39098 4.64081,-1.17295 1.39397,-0.81597 2.48193,-1.93793 3.26388,-3.36588 0.78199,-1.46195 1.17299,-3.12789 1.17299,-4.99782 0,-1.86993 -0.391,-3.51887 -1.17299,-4.94682 -0.78195,-1.46195 -1.86991,-2.58391 -3.26388,-3.36588 -1.35994,-0.78197 -2.90688,-1.17296 -4.64081,-1.17296 -1.73394,0 -3.29789,0.39099 -4.69185,1.17296 -1.35995,0.78197 -2.44791,1.90393 -3.26388,3.36588 -0.78196,1.42795 -1.17294,3.07689 -1.17294,4.94682 0,1.86993 0.39098,3.53587 1.17294,4.99782 0.81597,1.42795 1.90393,2.54991 3.26388,3.36588 1.39396,0.78197 2.95791,1.17295 4.69185,1.17295 z m -32.02673,-23.30615 c 3.43388,0 6.15379,1.00297 8.15972,3.00889 2.03993,1.97193 3.05988,4.87882 3.05988,8.72068 v 15.55445 h -4.89583 v -14.99346 c 0,-2.61791 -0.62898,-4.58984 -1.8869,-5.91579 -1.25797,-1.32595 -3.0599,-1.98893 -5.40581,-1.98893 -2.65192,0 -4.74285,0.78197 -6.27278,2.34592 -1.52996,1.52994 -2.29495,3.73986 -2.29495,6.62976 v 13.9225 h -4.89579 v -37.84064 h 4.89579 v 14.63647 c 1.01998,-1.29196 2.34594,-2.29492 3.97789,-3.00889 1.66593,-0.71398 3.51886,-1.07096 5.55878,-1.07096 z m -34.62775,27.692 c -3.56985,0 -6.79974,-0.78197 -9.68964,-2.34591 -2.8559,-1.59795 -5.09982,-3.77387 -6.73177,-6.52777 -1.63195,-2.7879 -2.44792,-5.91579 -2.44792,-9.38366 0,-3.46788 0.81597,-6.57877 2.44792,-9.33267 1.63195,-2.7879 3.89288,-4.96382 6.78279,-6.52776 2.88988,-1.59794 6.11976,-2.39692 9.68964,-2.39692 2.7879,0 5.3378,0.47599 7.64972,1.42795 2.31192,0.91797 4.28384,2.29492 5.91576,4.13086 l -3.31486,3.21288 c -2.68591,-2.8219 -6.03478,-4.23285 -10.04662,-4.23285 -2.65192,0 -5.04883,0.59498 -7.19074,1.78494 -2.14193,1.18996 -3.82488,2.83889 -5.04883,4.94682 -1.18996,2.07392 -1.78494,4.40284 -1.78494,6.98675 0,2.5839 0.59498,4.92982 1.78494,7.03775 1.22395,2.07392 2.9069,3.70587 5.04883,4.89582 2.14191,1.18996 4.53882,1.78494 7.19074,1.78494 3.97786,0 7.32673,-1.42795 10.04662,-4.28385 l 3.31486,3.21288 c -1.63192,1.83594 -3.62085,3.22989 -5.96678,4.18185 -2.31192,0.95197 -4.86183,1.42795 -7.64972,1.42795 z"
       style="fill:#242424;fill-opacity:1;fill-rule:nonzero;stroke:none;stroke-width:0.352778"
       id="path383" />
  </g>
</svg>
